<?xml version="1.0" encoding="UTF-8"?><svg id="_레이어_1" xmlns="http://www.w3.org/2000/svg" viewBox="0 0 885.65 1070.04"><path d="m885.65,535.02c0-60.06-46.29-114.62-121.73-154.98,75.43-40.36,121.73-94.92,121.73-154.98C885.65,100.76,687.39,0,442.83,0S0,100.76,0,225.06c0,60.06,46.29,114.62,121.73,154.98C46.29,420.4,0,474.96,0,535.02s46.29,114.62,121.73,154.98C46.29,730.36,0,784.92,0,844.98c0,124.3,198.26,225.06,442.83,225.06s442.83-100.76,442.83-225.06c0-60.06-46.29-114.62-121.73-154.98,75.43-40.36,121.73-94.92,121.73-154.98Z"/></svg>