<?xml version="1.0" encoding="UTF-8"?><svg id="_레이어_1" xmlns="http://www.w3.org/2000/svg" viewBox="0 0 849.29 1060.72"><path d="m842.67,384.26c-11.41-32.64-36.72-58.49-72.26-77.08,63.82-65.57,93.01-136.02,72.26-195.41C801.66-5.57,581.26-35.28,350.39,45.41,119.52,126.11-34.4,286.64,6.62,403.98c11.41,32.64,36.72,58.49,72.26,77.08C15.06,546.63-14.14,617.08,6.62,676.47c11.41,32.64,36.72,58.49,72.26,77.08C15.06,819.12-14.14,889.57,6.62,948.96c41.01,117.34,261.41,147.04,492.28,66.35,230.87-80.69,384.78-241.23,343.77-358.57-11.41-32.64-36.72-58.49-72.26-77.08,63.81-65.57,93.01-136.02,72.26-195.41Z"/></svg>